<svg id="Layer_1" data-name="Layer 1" xmlns="http://www.w3.org/2000/svg" viewBox="0 0 77.6 77.6"><defs><style>.cls-1{fill:#fdfefe;opacity:0.1;isolation:isolate;}</style></defs><title>data-security</title><g id="Layer_1-2" data-name="Layer 1-2"><circle class="cls-1" cx="38.8" cy="38.8" r="38.8"/></g><path d="M48.5,56.44a.72.72,0,0,1-.29-.06c-.37-.15-8.81-3.8-8.81-11.26V38.78a.77.77,0,0,1,.52-.72l8.34-2.81a.66.66,0,0,1,.48,0l8.34,2.81a.77.77,0,0,1,.52.72v6.34c0,7.46-8.44,11.11-8.81,11.26a.72.72,0,0,1-.29.06ZM40.92,39.33v5.79c0,5.74,6.15,9,7.58,9.73,1.43-.69,7.58-4,7.58-9.73V39.33L48.5,36.77Z" transform="translate(-0.4 0.4)"/><path d="M47.74,48.86h0a.79.79,0,0,1-.55-.29l-3-3.79a.75.75,0,0,1,.12-1.06.76.76,0,0,1,1.06.11L47.8,47l4.71-4.71a.76.76,0,0,1,1.08,1.08l-5.31,5.31a.77.77,0,0,1-.54.22Z" transform="translate(-0.4 0.4)"/><path d="M49.26,32.18H26.51a5.31,5.31,0,0,1,0-10.62H49.26a5.31,5.31,0,1,1,0,10.62Zm-22.75-9.1a3.79,3.79,0,0,0,0,7.58H49.26a3.79,3.79,0,0,0,0-7.58Z" transform="translate(-0.4 0.4)"/><path d="M28,29.14a2.28,2.28,0,1,1,2.27-2.27A2.28,2.28,0,0,1,28,29.14Zm0-3a.76.76,0,1,0,.75.76A.76.76,0,0,0,28,26.11Z" transform="translate(-0.4 0.4)"/><path d="M35.61,29.14a2.28,2.28,0,1,1,2.27-2.27A2.28,2.28,0,0,1,35.61,29.14Zm0-3a.76.76,0,1,0,.76.76A.76.76,0,0,0,35.61,26.11Z" transform="translate(-0.4 0.4)"/><path d="M35.61,41.28h-9.1a5.31,5.31,0,0,1-3.75-9.07,5.26,5.26,0,0,1,3.75-1.55H49.26a5.23,5.23,0,0,1,3.23,1.1.75.75,0,0,1,.13,1.06.77.77,0,0,1-1.07.14,3.63,3.63,0,0,0-2.29-.78H26.51a3.79,3.79,0,0,0,0,7.58h9.1a.76.76,0,1,1,0,1.52Z" transform="translate(-0.4 0.4)"/><path d="M28,38.24A2.28,2.28,0,1,1,30.3,36,2.28,2.28,0,0,1,28,38.24Zm0-3a.76.76,0,1,0,.75.76A.76.76,0,0,0,28,35.21Z" transform="translate(-0.4 0.4)"/><path d="M35.61,38.24A2.28,2.28,0,1,1,37.88,36,2.28,2.28,0,0,1,35.61,38.24Zm0-3a.76.76,0,1,0,.76.76A.76.76,0,0,0,35.61,35.21Z" transform="translate(-0.4 0.4)"/><path d="M35.61,50.37h-9.1a5.31,5.31,0,1,1,0-10.61h9.1a.76.76,0,1,1,0,1.52h-9.1a3.79,3.79,0,0,0,0,7.58h9.1a.76.76,0,0,1,.76.76A.75.75,0,0,1,35.61,50.37Z" transform="translate(-0.4 0.4)"/><path d="M28,47.34a2.28,2.28,0,1,1,2.27-2.27A2.28,2.28,0,0,1,28,47.34Zm0-3a.76.76,0,1,0,.75.76A.76.76,0,0,0,28,44.31Z" transform="translate(-0.4 0.4)"/><path d="M35.61,47.34a2.28,2.28,0,1,1,2.27-2.27A2.28,2.28,0,0,1,35.61,47.34Zm0-3a.76.76,0,1,0,.76.76A.76.76,0,0,0,35.61,44.31Z" transform="translate(-0.4 0.4)"/></svg>