<svg id="Layer_1" data-name="Layer 1" xmlns="http://www.w3.org/2000/svg" viewBox="0 0 215.8 123.93"><defs><style>.cls-1{fill:#2bace2;}.cls-2{fill:#8c8c8c;}</style></defs><title>c2c_logo [Converted]</title><path class="cls-1" d="M248.23,423.65c1.84,5.81,3.9,11.3,7.86,15.87a12.54,12.54,0,0,0,6,3.87h-1.19c-14.77,0-29.54,0-44.31,0a27.85,27.85,0,0,1-10.94-2A27.16,27.16,0,0,1,195.18,434a25.67,25.67,0,0,1-6.12-13.47,33.88,33.88,0,0,1-.15-4.51c0-10.6,0-21.19,0-31.79A25.25,25.25,0,0,1,195.22,367a26.79,26.79,0,0,1,7.21-5.86,27.47,27.47,0,0,1,8.5-3.07,32.1,32.1,0,0,1,5.84-.47l105.91,0a20.56,20.56,0,0,1,10.22,2.88,23.06,23.06,0,0,1,7.82,7.55,27.41,27.41,0,0,1,4.57,14.69A30.56,30.56,0,0,1,344,392.83a25.27,25.27,0,0,1-11.63,14.76,15.3,15.3,0,0,1-7.19,2.34c-6.79.22-13.59.28-20.39.31-8.93,0-17.87,0-26.8,0-3.09,0-5,1.93-5.38,5a10.49,10.49,0,0,0,.69,5.44,4.53,4.53,0,0,0,4.32,2.95c.46,0,.93,0,1.39,0h61.14q18.44,0,36.89,0c3.13,0,5.81-1,7.19-4a8.5,8.5,0,0,0,.62-3.48q.06-15.6,0-31.21c0-2.57-.51-5-3-6.33a10.55,10.55,0,0,0-4.5-1.22c-8.7-.11-17.4-.07-26.1,0a1.52,1.52,0,0,1-1.75-1.32,47.27,47.27,0,0,0-5-11.3,15.53,15.53,0,0,0-5.15-5.56,35.85,35.85,0,0,0-3.33-1.54c.39,0,.7-.05,1-.05,14.08,0,28.16,0,42.23,0a22.53,22.53,0,0,1,8.62,1.95,27.25,27.25,0,0,1,10.43,7.41,25.62,25.62,0,0,1,6.13,13.46,33.83,33.83,0,0,1,.15,4.51c0,10.71,0,21.42,0,32.13a25.11,25.11,0,0,1-6.23,16.86,26.49,26.49,0,0,1-7.38,6,28.06,28.06,0,0,1-8.4,3,32,32,0,0,1-6.07.47q-50.64,0-101.28,0a19.75,19.75,0,0,1-10.21-2.88,24,24,0,0,1-9.77-10.94,29.53,29.53,0,0,1-1.76-19.86,24.9,24.9,0,0,1,9.29-14.54A21.55,21.55,0,0,1,272,391.1a18.43,18.43,0,0,1,3.55-.36c14.73,0,29.47,0,44.2,0a4,4,0,0,0,4-2.45,10.49,10.49,0,0,0,.51-7.8,4.2,4.2,0,0,0-3.63-3,22,22,0,0,0-3.24-.21h-63c-12.68,0-25.36,0-38,0-3.11,0-5.69,1.18-7,4.15a8.52,8.52,0,0,0-.55,3.38c0,10.4,0,20.81,0,31.21,0,2.57.52,5,3,6.32a10.73,10.73,0,0,0,4.62,1.21c10.25.11,20.49.06,30.74.06Z" transform="translate(-188.89 -357.54)"/><path class="cls-2" d="M218.7,475.4q0,6.06-6,6.07t-6-6.07V457.77q0-6,6-6t6,6v3.88h-4.15v-3.88c0-1.29-.61-1.94-1.81-1.95h0c-1.2,0-1.79.65-1.79,1.95V475.4c0,1.31.6,2,1.8,2s1.83-.65,1.83-2v-3.87h4.15Z" transform="translate(-188.89 -357.54)"/><path class="cls-2" d="M224.42,455.52l2.83,9.94,2.84-9.94h4.41l-5,14.45-.12.32V481h-4.16V470.29l-.13-.32-5-14.45Z" transform="translate(-188.89 -357.54)"/><path class="cls-2" d="M236.24,455.52h6.41q5.53,0,5.54,5.37v3.82a3.62,3.62,0,0,1-2.28,3.55,3.62,3.62,0,0,1,2.28,3.54v3.85q0,5.34-5.81,5.35h-6.14Zm4.16,3.62v7.3h1.31a4.55,4.55,0,0,0,1.19-.1,1.58,1.58,0,0,0,1.13-1.63v-3.82c0-1.17-.6-1.75-1.81-1.75Zm0,10.95v7.28h1.82c1.21,0,1.81-.57,1.81-1.72V471.8a1.55,1.55,0,0,0-1.13-1.6,4.42,4.42,0,0,0-1.19-.11Z" transform="translate(-188.89 -357.54)"/><path class="cls-2" d="M250.81,455.52H261.6v3.62H255v7.3h5.7v3.65H255v7.28h6.63V481H250.81Z" transform="translate(-188.89 -357.54)"/><path class="cls-2" d="M263.93,455.52H270q5.53,0,5.53,5.37v3.82a4.31,4.31,0,0,1-3.27,4.44L276.92,481h-4.55l-3.75-11.21-.53.08V481h-4.16Zm4.16,3.62v7.3h1a4.6,4.6,0,0,0,1.19-.1,1.58,1.58,0,0,0,1.13-1.63v-3.82a1.58,1.58,0,0,0-1.81-1.75Z" transform="translate(-188.89 -357.54)"/><path class="cls-2" d="M295.55,455.52v3.62h-3.9V481h-4.16V459.14H283.6v-3.62Z" transform="translate(-188.89 -357.54)"/><path class="cls-2" d="M309.09,476.11c0,3.57-2,5.35-6,5.36s-6-1.78-6-5.36V460.52c0-3.56,2-5.35,6-5.35s6,1.79,6,5.35Zm-4.16-15.59c0-1.15-.6-1.72-1.8-1.72h0c-1.2,0-1.8.57-1.8,1.72v15.59c0,1.15.61,1.72,1.81,1.72s1.82-.57,1.82-1.72Z" transform="translate(-188.89 -357.54)"/><path class="cls-2" d="M330.23,475.4q0,6.06-6,6.07t-6-6.07V457.77q0-6,6-6t6,6v3.88h-4.16v-3.88c0-1.29-.6-1.94-1.81-1.95h0c-1.19,0-1.79.65-1.79,1.95V475.4c0,1.31.6,2,1.81,2s1.82-.65,1.82-2v-3.87h4.16Z" transform="translate(-188.89 -357.54)"/><path class="cls-2" d="M335.94,455.52l2.84,9.94,2.83-9.94H346L341,470l-.12.32V481H336.7V470.29l-.13-.32-5-14.45Z" transform="translate(-188.89 -357.54)"/><path class="cls-2" d="M347.77,455.52h6.4q5.54,0,5.54,5.37v3.82a3.62,3.62,0,0,1-2.28,3.55,3.62,3.62,0,0,1,2.28,3.54v3.85q0,5.34-5.8,5.35h-6.14Zm4.15,3.62v7.3h1.31a4.49,4.49,0,0,0,1.19-.1,1.57,1.57,0,0,0,1.13-1.63v-3.82a1.57,1.57,0,0,0-1.8-1.75Zm0,10.95v7.28h1.83c1.2,0,1.8-.57,1.8-1.72V471.8a1.54,1.54,0,0,0-1.13-1.6,4.37,4.37,0,0,0-1.19-.11Z" transform="translate(-188.89 -357.54)"/><path class="cls-2" d="M362.34,455.52h10.78v3.62H366.5v7.3h5.7v3.65h-5.7v7.28h6.62V481H362.34Z" transform="translate(-188.89 -357.54)"/><path class="cls-2" d="M375.46,455.52h6.05q5.53,0,5.54,5.37v3.82a4.31,4.31,0,0,1-3.28,4.44L388.44,481h-4.55l-3.75-11.21-.53.08V481h-4.15Zm4.15,3.62v7.3h1a4.55,4.55,0,0,0,1.19-.1,1.58,1.58,0,0,0,1.13-1.63v-3.82c0-1.17-.6-1.75-1.81-1.75Z" transform="translate(-188.89 -357.54)"/></svg>