<?xml version="1.0" encoding="utf-8"?>
<!-- Generator: Adobe Illustrator 24.0.1, SVG Export Plug-In . SVG Version: 6.00 Build 0)  -->
<svg version="1.1" id="Layer_1" xmlns="http://www.w3.org/2000/svg" xmlns:xlink="http://www.w3.org/1999/xlink" x="0px" y="0px"
	 viewBox="0 0 215.8 123.9" style="enable-background:new 0 0 215.8 123.9;" xml:space="preserve">
<style type="text/css">
	.st0{fill:#2BACE2;}
	.st1{fill:#FFFFFF;}
</style>
<title>c2c_logo [Converted]</title>
<path class="st0" d="M59.3,66.1c1.8,5.8,3.9,11.3,7.9,15.9c1.6,1.8,3.7,3.2,6,3.9H72c-14.8,0-29.5,0-44.3,0c-3.7,0.1-7.5-0.6-10.9-2
	c-4-1.6-7.6-4.1-10.5-7.4C3,72.7,0.8,68,0.2,63C0,61.5,0,60,0,58.5c0-10.6,0-21.2,0-31.8c-0.1-6.3,2.1-12.5,6.3-17.2
	c2-2.4,4.5-4.3,7.2-5.9c2.6-1.5,5.5-2.5,8.5-3.1C24,0.2,25.9,0,27.9,0.1h105.9c3.6,0,7.1,1,10.2,2.9c3.2,1.9,5.9,4.4,7.8,7.5
	c2.9,4.4,4.5,9.5,4.6,14.7c0.1,3.4-0.3,6.8-1.3,10.1c-1.8,6.2-6,11.5-11.6,14.8c-2.2,1.4-4.6,2.2-7.2,2.3
	c-6.8,0.2-13.6,0.3-20.4,0.3c-8.9,0-17.9,0-26.8,0c-3.1,0-5,1.9-5.4,5c-0.3,1.8,0,3.7,0.7,5.4c0.7,1.8,2.4,3,4.3,3
	c0.5,0,0.9,0,1.4,0h61.1c12.3,0,24.6,0,36.9,0c3.1,0,5.8-1,7.2-4c0.4-1.1,0.7-2.3,0.6-3.5c0-10.4,0-20.8,0-31.2c0-2.6-0.5-5-3-6.3
	c-1.4-0.7-2.9-1.2-4.5-1.2c-8.7-0.1-17.4-0.1-26.1,0c-0.8,0.1-1.6-0.4-1.7-1.3c0,0,0,0,0-0.1c-1.2-4-2.8-7.8-5-11.3
	c-1.2-2.3-3-4.2-5.1-5.6c-1.1-0.6-2.2-1.1-3.3-1.5c0.4,0,0.7,0,1,0c14.1,0,28.2,0,42.2,0c3,0.1,5.9,0.7,8.6,2
	c4,1.6,7.6,4.1,10.4,7.4c3.3,3.8,5.5,8.5,6.1,13.5c0.2,1.5,0.2,3,0.1,4.5c0,10.7,0,21.4,0,32.1c0.1,6.2-2.1,12.2-6.2,16.9
	c-2.1,2.4-4.6,4.5-7.4,6c-2.6,1.4-5.5,2.5-8.4,3c-2,0.3-4,0.5-6.1,0.5c-33.8,0-67.5,0-101.3,0c-3.6,0-7.1-1-10.2-2.9
	c-4.3-2.5-7.7-6.4-9.8-10.9c-2.9-6.2-3.5-13.2-1.8-19.9c1.3-5.8,4.6-11,9.3-14.5c2.7-2.1,5.9-3.5,9.2-4.1c1.2-0.2,2.4-0.4,3.5-0.4
	c14.7,0,29.5,0,44.2,0c1.7,0.1,3.3-0.9,4-2.5c1.2-2.4,1.4-5.2,0.5-7.8c-0.5-1.6-1.9-2.8-3.6-3c-1.1-0.1-2.2-0.2-3.2-0.2h-63
	c-12.7,0-25.4,0-38,0c-3.1,0-5.7,1.2-7,4.1c-0.4,1.1-0.6,2.2-0.6,3.4c0,10.4,0,20.8,0,31.2c0,2.6,0.5,5,3,6.3c1.4,0.7,3,1.2,4.6,1.2
	c10.3,0.1,20.5,0.1,30.7,0.1L59.3,66.1z"/>
<path class="st1" d="M29.8,117.9c0,4-2,6.1-6,6.1c-4,0-6-2-6-6.1v-17.6c0-4,2-6,6-6s6,2,6,6v3.9h-4.1v-3.9c0-1.3-0.6-1.9-1.8-2l0,0
	c-1.2,0-1.8,0.6-1.8,2v17.6c0,1.3,0.6,2,1.8,2s1.8-0.6,1.8-2V114h4.1L29.8,117.9z"/>
<path class="st1" d="M35.5,98l2.8,9.9l2.8-9.9h4.4l-5,14.5l-0.1,0.3v10.7h-4.2v-10.7l-0.1-0.3l-5-14.5H35.5z"/>
<path class="st1" d="M47.4,98h6.4c3.7,0,5.5,1.8,5.5,5.4v3.8c0.1,1.5-0.8,3-2.3,3.5c1.4,0.6,2.4,2,2.3,3.5v3.9
	c0,3.6-1.9,5.3-5.8,5.4h-6.1V98z M51.5,101.6v7.3h1.3c0.4,0,0.8,0,1.2-0.1c0.7-0.2,1.2-0.9,1.1-1.6v-3.8c0-1.2-0.6-1.8-1.8-1.8
	L51.5,101.6z M51.5,112.5v7.3h1.8c1.2,0,1.8-0.6,1.8-1.7v-3.9c0.1-0.7-0.4-1.4-1.1-1.6c-0.4-0.1-0.8-0.1-1.2-0.1H51.5z"/>
<path class="st1" d="M61.9,98h10.8v3.6h-6.6v7.3h5.7v3.6h-5.7v7.3h6.6v3.6H61.9V98z"/>
<path class="st1" d="M75,98h6.1c3.7,0,5.5,1.8,5.5,5.4v3.8c0.1,2.1-1.3,3.9-3.3,4.4l4.7,11.9h-4.5l-3.8-11.2l-0.5,0.1v11.1H75L75,98
	z M79.2,101.6v7.3h1c0.4,0,0.8,0,1.2-0.1c0.7-0.2,1.2-0.9,1.1-1.6v-3.8c0.1-0.9-0.5-1.7-1.4-1.8c-0.1,0-0.3,0-0.4,0L79.2,101.6z"/>
<path class="st1" d="M106.7,98v3.6h-3.9v21.9h-4.2v-21.9h-3.9V98L106.7,98z"/>
<path class="st1" d="M120.2,118.6c0,3.6-2,5.4-6,5.4s-6-1.8-6-5.4V103c0-3.6,2-5.4,6-5.4s6,1.8,6,5.4V118.6z M116,103
	c0-1.1-0.6-1.7-1.8-1.7l0,0c-1.2,0-1.8,0.6-1.8,1.7v15.6c0,1.1,0.6,1.7,1.8,1.7s1.8-0.6,1.8-1.7L116,103z"/>
<path class="st1" d="M141.3,117.9c0,4-2,6.1-6,6.1c-4,0-6-2-6-6.1v-17.6c0-4,2-6,6-6s6,2,6,6v3.9h-4.2v-3.9c0-1.3-0.6-1.9-1.8-2l0,0
	c-1.2,0-1.8,0.6-1.8,2v17.6c0,1.3,0.6,2,1.8,2s1.8-0.6,1.8-2V114h4.2L141.3,117.9z"/>
<path class="st1" d="M147.1,98l2.8,9.9l2.8-9.9h4.4l-5,14.5l-0.1,0.3v10.7h-4.2v-10.7l-0.1-0.3l-5-14.5H147.1z"/>
<path class="st1" d="M158.9,98h6.4c3.7,0,5.5,1.8,5.5,5.4v3.8c0.1,1.5-0.8,3-2.3,3.5c1.4,0.6,2.4,2,2.3,3.5v3.9
	c0,3.6-1.9,5.3-5.8,5.4h-6.1V98z M163,101.6v7.3h1.3c0.4,0,0.8,0,1.2-0.1c0.7-0.2,1.2-0.9,1.1-1.6v-3.8c0.1-0.9-0.5-1.6-1.4-1.8
	c-0.1,0-0.3,0-0.4,0L163,101.6z M163,112.5v7.3h1.8c1.2,0,1.8-0.6,1.8-1.7v-3.9c0.1-0.7-0.4-1.4-1.1-1.6c-0.4-0.1-0.8-0.1-1.2-0.1
	H163z"/>
<path class="st1" d="M173.4,98h10.8v3.6h-6.6v7.3h5.7v3.6h-5.7v7.3h6.6v3.6h-10.8V98z"/>
<path class="st1" d="M186.6,98h6c3.7,0,5.5,1.8,5.5,5.4v3.8c0.1,2.1-1.3,3.9-3.3,4.4l4.7,11.9H195l-3.8-11.2l-0.5,0.1v11.1h-4.1
	L186.6,98z M190.7,101.6v7.3h1c0.4,0,0.8,0,1.2-0.1c0.7-0.2,1.2-0.9,1.1-1.6v-3.8c0-1.2-0.6-1.8-1.8-1.8L190.7,101.6z"/>
</svg>
