<?xml version="1.0" encoding="utf-8"?>
<!-- Generator: Adobe Illustrator 24.0.1, SVG Export Plug-In . SVG Version: 6.00 Build 0)  -->
<svg version="1.1" xmlns="http://www.w3.org/2000/svg" xmlns:xlink="http://www.w3.org/1999/xlink" x="0px" y="0px"
	 viewBox="0 0 77.6 77.6" style="enable-background:new 0 0 77.6 77.6;" xml:space="preserve">
<style type="text/css">
	.st0{opacity:0.1;fill:#FDFEFE;enable-background:new    ;}
	.st1{display:none;}
	.st2{display:inline;}
	.st3{fill:#FDFEFE;}
</style>
<g id="Layer_1">
	<g id="Layer_1-2">
		<circle class="st0" cx="39.2" cy="38.4" r="38.8"/>
	</g>
	<g class="st1">
		<path class="st2" d="M57.2,34.8h-19c-1.7-2.7-4.8-4.5-8.2-4.5c-5.4,0-9.7,4.4-9.7,9.7c0,4.1,2.5,7.5,6,9v4.5c0,2,1.7,3.7,3.7,3.7
			s3.7-1.7,3.7-3.7v-4.5c1.9-0.8,3.4-2.1,4.5-3.8h19V34.8z M31.5,53.6c0,0.8-0.7,1.5-1.5,1.5s-1.5-0.7-1.5-1.5v-3.9
			c0.5,0.1,1,0.1,1.5,0.1c0.5,0,1,0,1.5-0.1V53.6z M30,47.6c-4.2,0-7.6-3.4-7.6-7.6s3.4-7.6,7.6-7.6c2.1,0,4.1,0.9,5.5,2.3h-6.6
			v10.5h6.6C34.1,46.7,32.1,47.6,30,47.6L30,47.6z M37.6,40.1c0,1.1-0.2,2.1-0.7,3.1H31V37h5.9C37.3,37.9,37.6,39,37.6,40.1
			L37.6,40.1z M55,43.1H39.2c0.3-1,0.5-2,0.5-3.1c0-1.1-0.2-2.1-0.5-3.1H55V43.1z"/>
		<path class="st2" d="M33,39h2.2v2.2H33V39z"/>
		<path class="st2" d="M41.8,39H44v2.2h-2.2V39z"/>
		<path class="st2" d="M46.3,39h2.2v2.2h-2.2V39z"/>
		<path class="st2" d="M50.6,39h2.2v2.2h-2.2V39z"/>
		<path class="st2" d="M49,25.8H43v-2.3c0-0.6,0.5-1,1-1c0.6,0,1,0.5,1,1h2.2c0-1.7-1.4-3.2-3.2-3.2c-1.7,0-3.2,1.4-3.2,3.2v2.3
			h-1.9v6.8H49L49,25.8z M46.9,30.4h-5.8V28h5.8V30.4z"/>
	</g>
</g>
<g id="Layer_2">
	<g>
		<path d="M28.7,23.4c2.2,0,4.3,0.3,6.4,1c0.1,0,0.1,0,0.2,0c0.2,0,0.5-0.1,0.6-0.4l1.2-2.9c0.1-0.2,0.1-0.4-0.1-0.6
			c-0.1-0.2-0.3-0.3-0.5-0.3c-0.6,0-1.2,0.1-1.8,0.1c-2.2,0.3-4.3,0.9-6.3,1.8c-0.3,0.1-0.4,0.4-0.3,0.7
			C28.1,23.3,28.4,23.5,28.7,23.4z M34.9,21.7c0.2,0,0.5-0.1,0.7-0.1l-0.6,1.4c-1.1-0.3-2.2-0.6-3.3-0.7
			C32.7,22.1,33.8,21.9,34.9,21.7z"/>
		<path d="M58.9,41c0-0.2-0.1-0.3-0.2-0.4c-0.1-0.1-0.3-0.2-0.5-0.1L49,41.5c-0.3,0-0.5,0.3-0.5,0.6c0,0.1,0,0.3,0,0.4
			c0,0.3,0.3,0.6,0.6,0.6c0.3,0,0.5-0.2,0.6-0.5l8-1c0,3.5-0.8,6.9-2.5,9.9l-6.4-2.7c0.2-0.5,0.3-1.1,0.4-1.6
			c1.9,0.5,3.2,0.8,3.5,0.9c0,0,0,0,0.1,0c0.1,0,0.1,0,0.2,0c0.3,0,0.6-0.1,0.8-0.4c0.2-0.2,0.3-0.5,0.2-0.8c0-0.3-0.2-0.5-0.4-0.7
			c-0.1,0-0.1-0.1-0.2-0.1c0,0,0,0-0.1,0c-0.7-0.3-8-3.4-12.5-5.2c-0.5-1.7-2.2-2.8-4-2.6c-2,0.2-3.4,2.1-3.2,4.1
			c0.2,1.9,1.8,3.2,3.6,3.2c0.1,0,0.3,0,0.5,0c0.6-0.1,1.2-0.3,1.7-0.7l8.5,2.1c-0.1,0.7-0.3,1.4-0.6,2.1c-0.1,0.3,0,0.6,0.3,0.8
			l7.4,3.1c0.1,0,0.2,0,0.2,0c0.2,0,0.4-0.1,0.5-0.3C58.1,49.1,59,45.1,58.9,41z M37.6,44.3c-0.1,0-0.2,0-0.3,0
			c-1.2,0-2.3-0.9-2.4-2.2c-0.2-1.3,0.8-2.6,2.1-2.7c0.1,0,0.2,0,0.3,0c1.1,0,2.2,0.8,2.4,2c0,0.1,0,0.1,0,0.2
			c0.1,0.8-0.2,1.6-0.8,2.1c0,0,0,0,0,0C38.6,44.1,38.1,44.3,37.6,44.3z M40.5,43.8C40.5,43.8,40.5,43.7,40.5,43.8
			c0.1-0.1,0.1-0.2,0.1-0.2c0,0,0-0.1,0-0.1c0,0,0-0.1,0.1-0.1c0,0,0-0.1,0-0.1c0,0,0-0.1,0-0.1c0,0,0-0.1,0-0.1c0,0,0-0.1,0-0.1
			c0,0,0-0.1,0-0.1c0,0,0-0.1,0-0.1c0,0,0-0.1,0-0.1c0,0,0-0.1,0-0.1c0,0,0-0.1,0-0.1c0,0,0-0.1,0-0.1c0,0,0-0.1,0-0.1
			c0,0,0,0,0-0.1c3.2,1.3,7.5,3.1,10,4.2c-0.7-0.2-1.5-0.4-2.4-0.6L40.5,43.8C40.5,43.8,40.5,43.8,40.5,43.8z"/>
		<path d="M53.8,54.6L47,51.7c-0.3-0.1-0.6,0-0.8,0.3c-1.1,2-2.5,3.9-4.2,5.4c-0.2,0.2-0.3,0.4-0.2,0.7s0.3,0.4,0.6,0.4h8.5
			c0.1,0,0.3-0.1,0.4-0.1c1-0.8,1.9-1.8,2.7-2.8c0.1-0.1,0.2-0.3,0.1-0.5C54.1,54.8,54,54.6,53.8,54.6z M50.7,57.2h-6.7
			c1.2-1.3,2.2-2.7,3.1-4.2l5.5,2.3C52,56,51.3,56.6,50.7,57.2z"/>
		<path d="M38,25.7c2.1,1.1,3.9,2.5,5.5,4.3c0.1,0.1,0.3,0.2,0.5,0.2c0.1,0,0.3,0,0.4-0.1l5.9-4.4c0.2-0.1,0.2-0.3,0.2-0.5
			c0-0.2-0.1-0.4-0.2-0.5c-3-2.2-6.5-3.6-10.1-4.1c-0.3,0-0.5,0.1-0.6,0.4l-1.7,4C37.6,25.2,37.8,25.5,38,25.7z M40.4,21.8
			c3,0.5,5.9,1.6,8.4,3.3L44,28.7c-1.4-1.5-3.1-2.8-4.9-3.8L40.4,21.8z"/>
		<path d="M45.5,32.5c1.2,2,2.1,4.1,2.6,6.4c0.1,0.3,0.3,0.5,0.6,0.5c0,0,0,0,0.1,0l9.2-1.1c0.2,0,0.3-0.1,0.4-0.2
			c0.1-0.1,0.1-0.3,0.1-0.5c-0.8-4-2.8-7.7-5.6-10.6c-0.2-0.2-0.6-0.2-0.8-0.1l-6.4,4.8C45.3,31.9,45.3,32.2,45.5,32.5z M52.3,28.2
			c2.3,2.6,4,5.6,4.8,9l-8,1c-0.5-2.1-1.3-4-2.3-5.8L52.3,28.2z"/>
	</g>
	<g>
		<polygon class="st3" points="40.2,45 40.2,47.3 40.3,47.3 40.4,45 		"/>
		<polygon class="st3" points="40.5,45.1 40.4,45 40.3,47.3 40.5,47.3 		"/>
		<path d="M40.2,47.5c-0.1,0.2,0.3,0.3,0.5,0.4l1.3,1.3l-2.4,2.4l-1.3-1.3c-0.2-0.2-0.4-0.2-0.6-0.1c-0.9,0.6-2,1-3,1.3
			c-0.2,0-0.4,0.2-0.4,0.5v1.8H31V52c0-0.2-0.2-0.4-0.4-0.5c-1.1-0.2-2.1-0.7-3-1.3c-0.1-0.1-0.2-0.1-0.3-0.1c-0.1,0-0.3,0-0.3,0.1
			l-1.3,1.3l-2.4-2.4l1.3-1.3c0.2-0.2,0.2-0.4,0.1-0.6c-0.6-0.9-1-2-1.3-3c0-0.2-0.2-0.4-0.5-0.4h-1.8v-3.3h1.8
			c0.2,0,0.4-0.2,0.5-0.4c0.2-1.1,0.7-2.1,1.3-3c0.1-0.2,0.1-0.4-0.1-0.6l-1.3-1.3l2.4-2.4l1.3,1.3c0.2,0.2,0.4,0.2,0.6,0.1
			c0.9-0.6,2-1,3-1.3c0.2,0,0.4-0.2,0.4-0.5v-1.8h3.3v1.8c0,0.2,0.2,0.4,0.4,0.5c1.1,0.2,2.1,0.7,3,1.3c0.2,0.1,0.4,0.1,0.6-0.1
			l1.3-1.3l2.4,2.4l-1.3,1.3l0,0l2-0.6c0.4-0.4,0.4-1,0-1.4l-2.4-2.4c-0.4-0.4-1-0.4-1.4,0l-1,1c-0.8-0.5-1.7-0.9-2.6-1.1v-1.4
			c0-0.5-0.4-1-1-1H31c-0.5,0-1,0.4-1,1v1.4c-0.9,0.2-1.8,0.6-2.6,1.1l-1-1c-0.4-0.4-1-0.4-1.4,0l-2.4,2.4c-0.4,0.4-0.4,1,0,1.4l1,1
			c-0.5,0.8-0.8,1.7-1.1,2.6h-1.5c-0.5,0-1,0.4-1,1v3.3c0,0.5,0.4,1,1,1h1.5c0.2,0.9,0.6,1.8,1.1,2.6l-1,1c-0.4,0.4-0.4,1,0,1.4
			l2.4,2.4c0.4,0.4,1,0.4,1.4,0l1-1c0.8,0.5,1.7,0.8,2.6,1.1v1.5c0,0.5,0.4,1,1,1h3.3c0.5,0,1-0.4,1-1v-1.5c0.9-0.2,1.8-0.6,2.6-1.1
			l1,1c0.4,0.4,1,0.4,1.4,0l2.4-2.4c0.4-0.4,0.4-1,0-1.4L40.2,47.5z"/>
	</g>
</g>
</svg>
